<svg width="30" height="30" viewBox="0 0 30 30" fill="none" xmlns="http://www.w3.org/2000/svg">
<path fill-rule="evenodd" clip-rule="evenodd" d="M29.7044 3.64986C29.7114 3.69746 29.6917 3.82763 29.6988 3.87527C29.6917 3.82772 29.7114 3.69737 29.7044 3.64986Z" fill="#2B7FFF"/>
<path fill-rule="evenodd" clip-rule="evenodd" d="M1.84321 21.5971C2.0893 21.9516 2.28213 22.44 2.89224 22.4921C3.30181 22.5176 3.47998 22.3793 3.6417 22.1688C3.87381 21.8665 4.05154 21.6623 4.27293 21.3549C4.31938 21.2904 5.46078 19.8561 6.09058 19.1094C6.67326 18.373 6.91918 18.1276 7.25593 17.7529C7.8386 17.1047 8.30907 16.4997 10.3747 14.6394C14.014 11.3619 16.6559 9.99369 18.6941 8.8259C19.7087 8.24455 19.7348 8.49011 19.4921 8.72265C19.2493 8.95519 12.7702 14.8034 11.5078 16.0452C10.4288 17.1065 6.02281 21.8224 4.49629 24.3004C3.5536 25.8306 3.05387 26.8623 2.42198 28.4944C2.10614 29.3102 2.0388 29.3751 2.983 29.7675C3.0026 29.7756 3.37839 29.8937 3.46856 29.9225C3.71134 30 3.75989 30 3.85701 30C3.95412 30 4.13356 29.9343 4.24545 29.845C4.41144 29.7125 4.46755 29.56 4.53679 29.4574C4.54359 29.4473 4.67117 29.2453 4.68246 29.2249C4.81861 28.9779 4.76268 29.0925 4.88943 28.8422C4.96867 28.6858 5.04791 28.5293 5.12946 28.3737L5.25428 28.1354C5.65539 27.3695 6.05652 26.6036 6.46583 25.8406C6.61393 25.5645 6.84328 25.3228 7.27099 25.4011C8.29558 25.5885 9.33351 25.6985 10.3747 25.798C11.906 25.9443 13.4396 25.9717 14.9676 25.7972C17.2089 25.5412 19.269 24.909 21.1628 23.9049C24.7168 22.0207 27.132 19.7479 28.5024 16.4997C28.5426 16.4044 28.5756 16.3384 28.6029 16.2837C28.62 16.2494 28.635 16.2195 28.6481 16.1896C28.6523 16.1769 28.6617 16.1556 28.6783 16.118C28.7122 16.0409 28.7768 15.8943 28.8909 15.6083C30.0666 12.6604 30.0329 9.57395 29.9802 6.50197L29.9788 6.42299L29.9591 6.03543L29.9265 5.63835L29.9256 5.62139C29.9101 5.32943 29.8983 5.10775 29.862 4.79522C29.8175 4.41315 29.7608 4.03067 29.7044 3.64986C29.6658 3.38992 29.6273 3.12994 29.5929 2.87172C29.4821 2.04033 29.3486 1.21088 29.1129 0.394407C29.0254 0.0911958 28.8423 -0.0183466 28.4067 0.00245949C27.6819 0.027996 26.9988 0.0728643 26.2964 0.119005L26.2821 0.119947C24.077 0.264789 21.8819 0.465568 19.7087 0.78736C15.9379 1.34571 12.3006 2.22414 8.97435 3.79886C5.91641 5.24655 3.46853 7.17278 1.77958 9.68473C0.455751 11.6537 -0.0509873 13.7694 0.00400878 15.9916C0.0531397 17.9769 0.627194 19.846 1.83417 21.5841L1.84321 21.5971Z" fill="#2B7FFF"/>
</svg>
