<svg width="30" height="30" viewBox="0 0 30 30" fill="none" xmlns="http://www.w3.org/2000/svg">
<path d="M0.488281 0.0478516C0.892905 -0.0139728 2.06469 -0.00693276 6.54395 0.0205078C15.4512 0.079585 15.83 0.0940491 17.8145 0.537109C20.8238 1.20917 24.0182 2.79698 25.9014 4.55469C27.6183 6.14992 28.9288 8.28467 29.5381 10.4707C29.9904 12.0879 30 12.3247 30 21.2236V30H13.2002V29.9971C9.27319 29.9997 9.22467 29.9801 8.76855 29.9092C7.02388 29.6285 5.61079 29.1182 4.23535 28.291C2.24176 27.0947 0.930707 25.5885 0.256836 23.7129L0.179688 23.4941C0.0789688 23.1139 0.0890459 22.8002 0.0527344 22.5479L0 0.853516C0.0241544 0.312272 0.219575 0.124762 0.488281 0.0478516ZM11.1455 25.7207H11.374V25.7188C11.4651 25.7192 11.5951 25.7133 11.749 25.7012H11.7539L12.166 25.6621C12.609 25.6141 13.1214 25.5416 13.4941 25.4697C17.5927 24.6278 20.7319 22.6712 22.8643 19.6211C23.6766 18.4542 24.2394 17.1688 24.5625 15.7139C24.7563 14.8866 24.7294 12.5971 24.5264 11.7773C23.7879 8.84549 21.535 6.46024 18.2305 5.13086C17.0304 4.65081 15.885 4.42945 14.168 4.34082C13.338 4.29656 12.5346 4.2734 11.9844 4.27637H11.1455V25.7207Z" fill="#155DFC"/>
</svg>
