<svg width="48" height="48" viewBox="0 0 48 48" fill="none" xmlns="http://www.w3.org/2000/svg">
<path d="M0.78125 0.0761719C1.42865 -0.0227472 3.30291 -0.0116784 10.4697 0.0322266C24.7224 0.126757 25.3285 0.150398 28.5039 0.859375C33.3187 1.93472 38.4294 4.47582 41.4424 7.28809C44.1894 9.84044 46.287 13.2554 47.2617 16.7529C47.9854 19.3408 48 19.7191 48 33.958V48H21.1201V47.998C14.8358 48.0022 14.7595 47.9681 14.0293 47.8545C11.238 47.4055 8.97794 46.5899 6.77734 45.2666C3.58714 43.3523 1.48934 40.9418 0.411133 37.9404L0.288086 37.5908C0.126963 36.9825 0.142057 36.4809 0.0839844 36.0771L0 1.36621C0.0386532 0.500083 0.351215 0.199191 0.78125 0.0761719ZM17.832 41.1533H18.1982V41.1514C18.3439 41.1522 18.5516 41.1424 18.7979 41.123H18.8066V41.1221C19.6032 41.0591 20.7967 40.9062 21.5918 40.7529C28.1494 39.4058 33.1712 36.2737 36.583 31.3936C37.8826 29.5266 38.7839 27.4703 39.3008 25.1426C39.6108 23.8189 39.5661 20.1564 39.2412 18.8447C38.0596 14.1535 34.4556 10.337 29.168 8.20996C27.248 7.44195 25.4168 7.08713 22.6699 6.94531C21.3416 6.87446 20.0553 6.83802 19.1748 6.84277V6.8418H17.832V41.1533Z" fill="#155DFC"/>
</svg>
