<svg width="48" height="48" viewBox="0 0 48 48" fill="none" xmlns="http://www.w3.org/2000/svg">
<path fill-rule="evenodd" clip-rule="evenodd" d="M47.527 5.83977C47.5383 5.91594 47.5067 6.1242 47.518 6.20044C47.5068 6.12436 47.5383 5.91579 47.527 5.83977Z" fill="#155DFC"/>
<path fill-rule="evenodd" clip-rule="evenodd" d="M2.94914 34.5554C3.34288 35.1226 3.65142 35.9041 4.62758 35.9874C5.2829 36.0281 5.56797 35.8069 5.82673 35.47C6.1981 34.9865 6.48246 34.6597 6.83669 34.1678C6.911 34.0646 8.73726 31.7698 9.74493 30.5751C10.6772 29.3969 11.0707 29.0041 11.6095 28.4047C12.5418 27.3675 13.2945 26.3995 16.5996 23.423C22.4224 18.1791 26.6495 15.9899 29.9105 14.1214C31.5339 13.1913 31.5757 13.5842 31.1873 13.9562C30.7988 14.3283 20.4324 23.6855 18.4125 25.6723C16.6861 27.3704 9.63649 34.9158 7.19406 38.8806C5.68575 41.329 4.88619 42.9797 3.87517 45.5911C3.36982 46.8963 3.26208 47.0001 4.77279 47.6279C4.80417 47.641 5.40543 47.8299 5.54969 47.876C5.93814 48 6.01583 48 6.17121 48C6.32659 48 6.61369 47.8949 6.79273 47.752C7.05831 47.54 7.14809 47.2961 7.25886 47.1319C7.26974 47.1157 7.47387 46.7925 7.49193 46.7598C7.70978 46.3647 7.62029 46.548 7.82309 46.1476C7.94987 45.8972 8.07665 45.6469 8.20713 45.3979L8.40685 45.0166C9.04863 43.7912 9.69043 42.5658 10.3453 41.3449C10.5823 40.9032 10.9493 40.5165 11.6336 40.6417C13.2729 40.9417 14.9336 41.1177 16.5996 41.2768C19.0496 41.5109 21.5033 41.5547 23.9482 41.2755C27.5343 40.8659 30.8303 39.8544 33.8604 38.2479C39.5469 35.2331 43.4112 31.5966 45.6038 26.3995C45.6681 26.2471 45.7209 26.1414 45.7647 26.0539C45.7921 25.999 45.816 25.9512 45.8369 25.9034C45.8436 25.8831 45.8587 25.849 45.8852 25.7888C45.9396 25.6654 46.0428 25.4309 46.2254 24.9733C48.1065 20.2567 48.0526 15.3183 47.9683 10.4032L47.9661 10.2768L47.9345 9.65668L47.8823 9.02136L47.8809 8.99423C47.8561 8.52709 47.8373 8.17241 47.7792 7.67235C47.708 7.06104 47.6173 6.44907 47.527 5.83977C47.4653 5.42387 47.4037 5.0079 47.3486 4.59475C47.1714 3.26453 46.9577 1.93741 46.5806 0.631052C46.4406 0.145913 46.1477 -0.0293545 45.4507 0.00393518C44.291 0.0447937 43.1981 0.116583 42.0743 0.190409L42.0513 0.191916C38.5232 0.423662 35.0111 0.744908 31.5339 1.25978C25.5006 2.15313 19.681 3.55862 14.359 6.07817C9.46626 8.39448 5.54965 11.4764 2.84733 15.4956C0.729202 18.6458 -0.0815796 22.0311 0.00641405 25.5865C0.0850236 28.7631 1.00351 31.7537 2.93467 34.5346L2.94914 34.5554Z" fill="#155DFC"/>
</svg>
